<?xml version="1.0" encoding="utf-8"?>
<!-- Generator: Adobe Illustrator 16.0.0, SVG Export Plug-In . SVG Version: 6.00 Build 0)  -->
<!DOCTYPE svg PUBLIC "-//W3C//DTD SVG 1.1//EN" "http://www.w3.org/Graphics/SVG/1.1/DTD/svg11.dtd">
<svg version="1.1" id="Layer_1" xmlns="http://www.w3.org/2000/svg" xmlns:xlink="http://www.w3.org/1999/xlink" x="0px" y="0px"
	 width="500px" height="280px" viewBox="0 0 500 280" enable-background="new 0 0 500 280" xml:space="preserve">
<g>
	<g>
		<g>
			<rect x="383.908" y="167.125" fill="#2644FE" width="16.423" height="1.253"/>
		</g>
		<g>
			<rect x="383.908" y="171.6" fill="#2644FE" width="16.423" height="1.252"/>
		</g>
		<g>
			<rect x="383.908" y="176.066" fill="#2644FE" width="16.423" height="1.252"/>
		</g>
		<g>
			<path fill="#2644FE" d="M163.191,151.965c0.096-0.003,0.223-0.007,0.347-0.007c2.495,0,3.954,1.174,5.641,2.535l0.101,0.08
				c2.113,1.7,4.744,3.821,10.107,3.821c7.464,0,10.279-5.875,10.964-7.676l-1.208-0.332c-0.778,2.03-3.286,6.754-9.756,6.754
				c-4.923,0-7.258-1.882-9.318-3.541c-1.68-1.354-3.584-2.888-6.852-2.888c-3.957,0.089-6.151,3.651-6.912,5.183l1.17,0.465
				C158.145,155.064,160.045,152.039,163.191,151.965z"/>
		</g>
		<g>
			<path fill="#2644FE" d="M118.121,198.484l14.78,48.08l49.744-15.289l-14.774-48.082L118.121,198.484z M133.956,244.57
				l-13.839-45.031l46.698-14.35l13.835,45.029L133.956,244.57z"/>
		</g>
		<g>
			<path fill="#2644FE" d="M406.222,75.719c-11.982,0-23.206,5.922-30.024,15.846l-0.741,1.081l-0.528-0.167l-73.102-22.887
				l14.52-68.328L245.413,51.93l-65.558-20.526l-0.374,1.192l64.656,20.246l-99.48,71.058l80.273-17.712l-13.658,15.959
				l20.382,33.979l9.896-53.606l55.896-12.334l4.113-19.366l73.217,22.926l-0.604,1.12c-2.758,5.096-4.259,10.872-4.348,16.708
				l-0.023,1.533l-47.747,32.684l0.703,1.034l47.108-32.246l0.151,1.416c0.939,8.877,5.128,17.089,11.791,23.122
				c6.705,6.076,15.377,9.423,24.411,9.423c20.078,0,36.412-16.333,36.412-36.411C442.634,92.053,426.3,75.719,406.222,75.719z
				 M240.473,101.474l-12.158,2.684l14.869-17.376L240.473,101.474z M231.028,152.645l-18.222-30.367l14.153-16.537l13.268-2.927
				L231.028,152.645z M296.391,89.137l-54.59,12.045l3.461-18.753l-18.98,22.179l-0.246,0.054l-75.663,16.695l95.265-68.046
				l54.728,17.135L296.391,89.137z M300.623,69.215l-53.711-16.817L314.45,4.155L300.623,69.215z M371.1,110.701
				c0.07-1.709,0.259-3.393,0.564-5.044c0.674-3.636,1.921-7.122,3.725-10.409l0.616-1.119l14.77,4.625l-19.737,13.508
				L371.1,110.701z M406.222,147.29c-2.762,0-5.487-0.324-8.127-0.951c-5.809-1.382-11.205-4.237-15.683-8.367
				c-6.473-5.973-10.451-14.065-11.207-22.789l-0.123-1.432l22.527-15.423l-16.911-5.294l0.754-1.075
				c6.6-9.386,17.354-14.988,28.77-14.988c19.387,0,35.159,15.774,35.159,35.159C441.381,131.517,425.607,147.29,406.222,147.29z"/>
		</g>
		<g>
			<path fill="#2644FE" d="M323.35,62.045c2.119,0,3.842-1.725,3.842-3.84c0-2.118-1.723-3.84-3.842-3.84
				c-2.117,0-3.84,1.722-3.84,3.84C319.51,60.32,321.23,62.045,323.35,62.045z M323.35,55.617c1.429,0,2.59,1.16,2.59,2.588
				c0,1.427-1.161,2.588-2.59,2.588c-1.428,0-2.586-1.161-2.586-2.588C320.764,56.777,321.922,55.617,323.35,55.617z"/>
		</g>
		<g>
			<path fill="#2644FE" d="M399.77,250.04c-5.145-15.905-15.013-29.388-28.538-38.983l-0.208-0.148l-19.286-62.745l-10.636,3.263
				l15.855,51.594l-1.464-0.598c-9.177-3.747-18.879-5.646-28.839-5.646c-28.793,0-54.944,15.844-68.249,41.351l1.114,0.567
				c13.088-25.08,38.812-40.666,67.135-40.666c10.572,0,20.826,2.172,30.482,6.457l0.313,0.138l13.23,43.05l10.636-3.268
				l-9.704-31.572l1.885,1.482c11.761,9.246,20.432,21.735,25.077,36.115c6.145,19.006,4.602,39.305-4.349,57.153l1.114,0.57
				C404.444,290.004,406.014,269.37,399.77,250.04z M358.485,203.721l-15.818-51.468l8.242-2.528l18.443,60.014l-1.707-1.074
				c-1.983-1.248-4.015-2.405-6.035-3.438c-0.837-0.431-1.735-0.865-2.823-1.367L358.485,203.721z M379.753,243.578l-8.24,2.527
				l-12.538-40.801l1.782,0.896c0.096,0.046,0.19,0.09,0.283,0.142c2.989,1.527,5.914,3.276,8.696,5.203l0.218,0.147
				L379.753,243.578z"/>
		</g>
	</g>
</g>
<g>
	<g>
		<path fill="#FFFFFF" d="M122.79,201.249v-1.835h4.988v6.248c0,1.143-0.294,1.996-0.884,2.562
			c-0.589,0.566-1.346,0.851-2.268,0.851c-1.151,0-2.156-0.444-3.015-1.33l1.11-1.534c0.576,0.621,1.178,0.932,1.809,0.932
			c0.301,0,0.559-0.115,0.774-0.35c0.215-0.232,0.322-0.582,0.322-1.048v-4.496H122.79z"/>
		<path fill="#FFFFFF" d="M138.11,207.67c-0.968,0.945-2.161,1.418-3.577,1.418s-2.608-0.473-3.576-1.418
			c-0.969-0.945-1.453-2.121-1.453-3.527s0.484-2.584,1.453-3.529c0.968-0.945,2.16-1.418,3.576-1.418s2.608,0.473,3.577,1.418
			c0.969,0.945,1.453,2.123,1.453,3.529C139.562,205.549,139.079,206.725,138.11,207.67z M137.384,204.146
			c0-0.854-0.274-1.582-0.822-2.186s-1.222-0.904-2.021-0.904s-1.473,0.303-2.021,0.904c-0.548,0.604-0.822,1.332-0.822,2.186
			c0,0.854,0.274,1.582,0.822,2.181s1.222,0.897,2.021,0.897s1.473-0.3,2.021-0.897
			C137.109,205.729,137.384,205.002,137.384,204.146z"/>
		<path fill="#FFFFFF" d="M141.372,199.414h2.137v9.578h-2.137V199.414z"/>
		<path fill="#FFFFFF" d="M152.567,199.414h2.138v9.578h-2.138l-4.563-6.002v6.002h-2.138v-9.578h2.001l4.7,6.166V199.414z"/>
		<path fill="#FFFFFF" d="M168.738,207.67c-0.968,0.945-2.161,1.418-3.576,1.418c-1.417,0-2.609-0.473-3.577-1.418
			c-0.969-0.945-1.453-2.121-1.453-3.527s0.484-2.584,1.453-3.529c0.968-0.945,2.16-1.418,3.577-1.418
			c1.416,0,2.608,0.473,3.576,1.418c0.969,0.945,1.453,2.123,1.453,3.529C170.19,205.549,169.707,206.725,168.738,207.67z
			 M168.012,204.146c0-0.854-0.274-1.582-0.823-2.186c-0.548-0.604-1.222-0.904-2.021-0.904s-1.473,0.303-2.021,0.904
			c-0.548,0.604-0.822,1.332-0.822,2.186c0,0.854,0.274,1.582,0.822,2.181s1.222,0.897,2.021,0.897c0.8,0,1.474-0.3,2.021-0.897
			C167.738,205.729,168.012,205.002,168.012,204.146z"/>
		<path fill="#FFFFFF" d="M174.534,206.52c0.356,0.442,0.836,0.664,1.439,0.664s1.08-0.222,1.432-0.664
			c0.351-0.442,0.527-1.049,0.527-1.815v-5.289h2.138v5.356c0,1.391-0.383,2.455-1.151,3.201c-0.767,0.743-1.749,1.115-2.946,1.115
			c-1.197,0-2.182-0.374-2.954-1.124c-0.772-0.748-1.158-1.813-1.158-3.192v-5.356H174v5.289
			C174,205.471,174.178,206.076,174.534,206.52z"/>
		<path fill="#FFFFFF" d="M190.061,202.593c0,1.535-0.608,2.526-1.822,2.974l2.425,3.427h-2.631l-2.124-3.056h-1.48v3.056h-2.137
			v-9.578h3.631c1.489,0,2.551,0.251,3.187,0.754C189.743,200.67,190.061,201.479,190.061,202.593z M187.484,203.729
			c0.265-0.236,0.397-0.612,0.397-1.129s-0.137-0.871-0.411-1.062c-0.274-0.191-0.753-0.288-1.439-0.288h-1.604v2.838h1.562
			C186.722,204.087,187.219,203.969,187.484,203.729z"/>
	</g>
	<g>
		<path fill="#FFFFFF" d="M138.436,231.484h-1.21l-10.239-14.642h-0.049l-0.404,10.886c-0.024,0.433-0.045,0.855-0.061,1.272
			c-0.016,0.415-0.053,0.817-0.11,1.211l1.798-0.099l-0.049,1.089h-4.587l0.024-0.818c0.383,0,0.689-0.067,0.917-0.202
			c0.229-0.135,0.404-0.3,0.526-0.496c0.122-0.195,0.204-0.408,0.245-0.638c0.041-0.228,0.065-0.44,0.073-0.638l0.673-13.758
			l-1.676,0.108l0.049-1.1h2.973l10.08,14.335h0.048l0.526-11.533c0.016-0.365,0.039-0.701,0.067-0.997
			c0.028-0.299,0.063-0.569,0.104-0.813l-1.798,0.108l0.049-1.1h4.611l-0.048,0.817c-0.474,0.017-0.83,0.104-1.071,0.265
			c-0.241,0.157-0.414,0.372-0.52,0.642c-0.106,0.271-0.167,0.59-0.184,0.955c-0.017,0.368-0.037,0.776-0.061,1.225L138.436,231.484
			z"/>
		<path fill="#FFFFFF" d="M151.647,221.282c0,0.466-0.11,0.883-0.33,1.256c-0.22,0.37-0.518,0.702-0.893,0.995
			c-0.375,0.294-0.809,0.551-1.303,0.771c-0.494,0.219-1.013,0.411-1.56,0.574s-1.103,0.295-1.669,0.396
			c-0.567,0.104-1.111,0.182-1.633,0.238c0.008,1.57,0.24,2.746,0.697,3.526s1.179,1.171,2.166,1.171
			c0.367,0,0.734-0.059,1.101-0.176c0.367-0.118,0.728-0.299,1.083-0.542s0.695-0.556,1.021-0.933
			c0.326-0.377,0.628-0.83,0.905-1.358l0.82,0.464c-0.701,1.312-1.486,2.277-2.354,2.893c-0.869,0.616-1.87,0.924-3.003,0.924
			c-0.799,0-1.488-0.129-2.067-0.391c-0.579-0.261-1.06-0.629-1.443-1.102c-0.383-0.473-0.667-1.043-0.85-1.706
			c-0.183-0.665-0.275-1.405-0.275-2.22c0-0.646,0.055-1.282,0.165-1.916c0.11-0.631,0.277-1.231,0.502-1.799
			c0.224-0.565,0.503-1.093,0.837-1.576c0.334-0.485,0.729-0.902,1.181-1.254c0.453-0.353,0.962-0.627,1.529-0.826
			s1.193-0.299,1.877-0.299c0.441,0,0.871,0.051,1.291,0.152s0.793,0.264,1.12,0.488c0.326,0.227,0.589,0.52,0.789,0.888
			C151.547,220.292,151.647,220.745,151.647,221.282z M147.794,219.253c-0.579,0-1.078,0.151-1.499,0.459
			c-0.419,0.306-0.771,0.709-1.051,1.211c-0.282,0.5-0.5,1.073-0.655,1.718c-0.155,0.646-0.257,1.301-0.306,1.971
			c0.66-0.09,1.307-0.229,1.939-0.416c0.632-0.188,1.197-0.426,1.694-0.715c0.498-0.291,0.899-0.629,1.205-1.016
			c0.306-0.389,0.459-0.822,0.459-1.303c0-0.271-0.037-0.521-0.11-0.754c-0.073-0.232-0.184-0.434-0.33-0.604
			c-0.147-0.173-0.333-0.307-0.557-0.404C148.358,219.302,148.096,219.253,147.794,219.253z"/>
		<path fill="#FFFFFF" d="M171.427,226.165c-0.277,0.749-0.628,1.446-1.052,2.09c-0.424,0.646-0.909,1.209-1.456,1.688
			c-0.546,0.48-1.14,0.857-1.78,1.133c-0.64,0.271-1.314,0.408-2.024,0.408c-0.293,0-0.593-0.045-0.899-0.135
			c-0.306-0.089-0.583-0.25-0.832-0.483c-0.249-0.231-0.451-0.544-0.605-0.941c-0.155-0.396-0.232-0.894-0.232-1.498
			c0-0.219,0.012-0.46,0.036-0.721h-0.048c-0.172,0.487-0.406,0.961-0.704,1.418c-0.298,0.458-0.638,0.86-1.022,1.212
			c-0.383,0.35-0.796,0.629-1.241,0.838c-0.445,0.208-0.896,0.311-1.352,0.311c-0.49,0-0.899-0.084-1.229-0.256
			c-0.331-0.17-0.598-0.403-0.801-0.703c-0.204-0.297-0.351-0.643-0.44-1.036c-0.09-0.397-0.134-0.818-0.134-1.265
			c0-0.66,0.034-1.351,0.104-2.065c0.069-0.72,0.145-1.41,0.227-2.079c0.081-0.667,0.157-1.284,0.226-1.852
			c0.069-0.566,0.104-1.027,0.104-1.388c0-0.153-0.006-0.304-0.018-0.446c-0.012-0.143-0.043-0.266-0.092-0.371
			s-0.118-0.19-0.208-0.258c-0.09-0.063-0.212-0.099-0.367-0.099c-0.139,0-0.285,0.045-0.44,0.13
			c-0.155,0.085-0.308,0.223-0.458,0.412c-0.151,0.191-0.3,0.441-0.446,0.75c-0.147,0.309-0.282,0.68-0.404,1.119l-0.698-0.146
			c0.058-0.295,0.161-0.643,0.312-1.047c0.15-0.402,0.354-0.789,0.612-1.16c0.256-0.371,0.57-0.687,0.941-0.941
			c0.371-0.258,0.809-0.387,1.315-0.387c0.661,0,1.165,0.207,1.511,0.625c0.346,0.414,0.52,1.02,0.52,1.809
			c0,0.368-0.017,0.783-0.049,1.243c-0.032,0.461-0.075,0.94-0.128,1.438c-0.053,0.496-0.108,0.998-0.165,1.51
			c-0.057,0.509-0.113,0.994-0.166,1.455c-0.053,0.461-0.096,0.879-0.128,1.254c-0.032,0.375-0.049,0.682-0.049,0.918
			c0,0.188,0.017,0.369,0.049,0.551c0.033,0.179,0.09,0.339,0.171,0.479c0.082,0.137,0.192,0.252,0.331,0.34
			c0.138,0.092,0.313,0.137,0.526,0.137c0.538,0,1.068-0.196,1.59-0.59c0.522-0.39,0.989-0.955,1.401-1.698
			c0.411-0.743,0.746-1.652,1.003-2.734c0.256-1.079,0.385-2.309,0.385-3.688c0-0.432-0.012-0.877-0.037-1.34
			c-0.024-0.459-0.07-0.935-0.135-1.426h2.141c0.016,0.074,0.03,0.161,0.042,0.264c0.012,0.104,0.022,0.205,0.03,0.312
			c0.009,0.105,0.015,0.209,0.019,0.312c0.004,0.103,0.006,0.181,0.006,0.238c0,0.838-0.043,1.645-0.128,2.416
			c-0.086,0.77-0.182,1.506-0.288,2.201c-0.106,0.697-0.202,1.364-0.287,2c-0.086,0.637-0.129,1.24-0.129,1.812
			c0,0.242,0.018,0.483,0.055,0.721c0.037,0.236,0.106,0.443,0.208,0.624c0.102,0.179,0.245,0.323,0.428,0.437
			c0.184,0.107,0.422,0.164,0.715,0.164c0.408,0,0.817-0.09,1.229-0.264c0.412-0.176,0.805-0.424,1.181-0.74
			c0.375-0.318,0.724-0.697,1.046-1.138c0.322-0.44,0.604-0.929,0.844-1.463c0.241-0.533,0.428-1.104,0.562-1.712
			c0.135-0.608,0.202-1.237,0.202-1.891c0-0.316-0.021-0.627-0.061-0.931c-0.041-0.302-0.106-0.583-0.196-0.844
			c-0.09-0.261-0.214-0.486-0.373-0.679c-0.159-0.191-0.353-0.336-0.581-0.435c-0.098,0.222-0.241,0.379-0.428,0.478
			c-0.188,0.099-0.387,0.146-0.599,0.146c-0.114,0-0.233-0.021-0.355-0.062c-0.123-0.039-0.234-0.104-0.336-0.195
			c-0.102-0.09-0.186-0.2-0.25-0.335c-0.066-0.136-0.098-0.296-0.098-0.483c0-0.139,0.026-0.281,0.08-0.429
			c0.053-0.146,0.136-0.278,0.25-0.396c0.114-0.119,0.267-0.218,0.459-0.295c0.192-0.078,0.43-0.115,0.715-0.115
			c0.506,0,0.946,0.117,1.321,0.354s0.685,0.555,0.93,0.954c0.245,0.399,0.428,0.862,0.55,1.396
			c0.123,0.529,0.184,1.092,0.184,1.688c0,0.555-0.051,1.119-0.153,1.695C171.784,225.057,171.631,225.618,171.427,226.165z"/>
		<path fill="#FFFFFF" d="M175.722,229.404c0.065,0.182,0.167,0.343,0.306,0.484c0.139,0.144,0.304,0.264,0.496,0.359
			c0.191,0.098,0.397,0.174,0.617,0.229c0.22,0.053,0.444,0.08,0.673,0.08c0.905,0,1.582-0.209,2.031-0.619
			c0.449-0.412,0.673-1,0.673-1.769c0-0.424-0.149-0.806-0.446-1.146c-0.298-0.336-0.673-0.66-1.126-0.965
			c-0.452-0.307-0.94-0.604-1.461-0.898c-0.522-0.295-1.009-0.605-1.462-0.938c-0.453-0.33-0.828-0.69-1.125-1.089
			c-0.297-0.396-0.446-0.846-0.446-1.352c0-0.457,0.104-0.89,0.312-1.304c0.208-0.41,0.501-0.771,0.88-1.082
			c0.379-0.31,0.834-0.555,1.364-0.732c0.53-0.182,1.121-0.27,1.773-0.27c0.473,0,0.932,0.06,1.376,0.178
			c0.444,0.117,0.84,0.283,1.187,0.494c0.347,0.213,0.624,0.47,0.832,0.771c0.208,0.304,0.312,0.642,0.312,1.015
			c0,0.368-0.1,0.654-0.299,0.857c-0.2,0.205-0.451,0.305-0.752,0.305c-0.302,0-0.544-0.1-0.728-0.305
			c-0.184-0.203-0.275-0.436-0.275-0.695c0-0.133,0.016-0.262,0.048-0.394c0.033-0.13,0.094-0.267,0.184-0.403
			c-0.09-0.277-0.298-0.511-0.624-0.703c-0.326-0.191-0.771-0.287-1.333-0.287c-0.277,0-0.553,0.047-0.825,0.141
			c-0.274,0.094-0.521,0.228-0.741,0.404c-0.22,0.176-0.397,0.386-0.532,0.629c-0.135,0.244-0.202,0.515-0.202,0.808
			c0,0.303,0.087,0.582,0.263,0.838c0.175,0.257,0.408,0.5,0.697,0.728c0.289,0.229,0.62,0.453,0.991,0.668
			c0.372,0.216,0.748,0.438,1.131,0.666c0.384,0.229,0.761,0.472,1.132,0.724s0.701,0.528,0.991,0.825
			c0.289,0.299,0.521,0.623,0.697,0.979c0.175,0.354,0.263,0.752,0.263,1.193c0,0.527-0.114,1.018-0.342,1.461
			c-0.229,0.443-0.551,0.829-0.967,1.154c-0.416,0.326-0.914,0.582-1.492,0.766c-0.58,0.184-1.215,0.273-1.908,0.273
			c-0.506,0-1.001-0.058-1.487-0.176c-0.485-0.119-0.916-0.289-1.29-0.514c-0.375-0.225-0.677-0.504-0.906-0.839
			c-0.228-0.334-0.342-0.718-0.342-1.149c0-0.367,0.104-0.666,0.312-0.894s0.467-0.343,0.777-0.343c0.334,0,0.587,0.111,0.758,0.33
			c0.171,0.221,0.257,0.465,0.257,0.734c0,0.121-0.015,0.246-0.043,0.373C175.87,229.137,175.811,229.268,175.722,229.404z"/>
		<path fill="#FFFFFF" d="M186.719,215.216c0.032-0.222,0.062-0.397,0.086-0.53c0.024-0.137,0.044-0.25,0.061-0.345
			c0.017-0.094,0.031-0.174,0.043-0.237c0.013-0.064,0.027-0.144,0.043-0.232l-1.786,0.1l0.11-0.994
			c0.546,0,1.001-0.018,1.364-0.056c0.362-0.034,0.663-0.087,0.899-0.149c0.236-0.062,0.424-0.133,0.562-0.215
			c0.139-0.086,0.257-0.173,0.354-0.265h0.722c-0.049,0.312-0.106,0.656-0.171,1.035c-0.066,0.379-0.129,0.761-0.19,1.146
			c-0.061,0.381-0.12,0.756-0.178,1.116c-0.057,0.363-0.102,0.685-0.134,0.961c-0.074,0.587-0.153,1.245-0.239,1.978
			c-0.085,0.729-0.169,1.484-0.25,2.269c-0.082,0.782-0.161,1.57-0.238,2.358c-0.078,0.793-0.145,1.549-0.202,2.271
			c-0.057,0.721-0.104,1.387-0.141,1.987c-0.037,0.604-0.055,1.106-0.055,1.506c0,0.163,0.006,0.323,0.019,0.481
			c0.012,0.16,0.041,0.302,0.085,0.424c0.045,0.121,0.114,0.222,0.208,0.299c0.094,0.078,0.222,0.115,0.385,0.115
			c0.13,0,0.277-0.041,0.44-0.129c0.163-0.084,0.324-0.224,0.483-0.414c0.159-0.192,0.316-0.441,0.471-0.752
			c0.155-0.311,0.294-0.689,0.416-1.139l0.722,0.159c-0.057,0.292-0.165,0.642-0.324,1.046c-0.159,0.403-0.371,0.789-0.636,1.155
			c-0.265,0.368-0.589,0.678-0.972,0.937c-0.383,0.258-0.824,0.385-1.321,0.385c-0.726,0-1.242-0.187-1.547-0.557
			c-0.306-0.369-0.459-0.932-0.459-1.682c0-0.393,0.02-0.91,0.062-1.555c0.041-0.646,0.096-1.367,0.165-2.17
			c0.069-0.803,0.15-1.655,0.245-2.56c0.094-0.897,0.191-1.805,0.293-2.714c0.102-0.91,0.204-1.796,0.306-2.661
			C186.521,216.727,186.621,215.934,186.719,215.216z"/>
		<path fill="#FFFFFF" d="M201.459,221.282c0,0.466-0.11,0.883-0.33,1.256c-0.22,0.37-0.518,0.702-0.894,0.995
			c-0.375,0.294-0.809,0.551-1.302,0.771c-0.494,0.221-1.014,0.411-1.56,0.574s-1.103,0.295-1.669,0.396
			c-0.567,0.104-1.111,0.182-1.633,0.238c0.008,1.57,0.241,2.746,0.697,3.526s1.179,1.171,2.165,1.171
			c0.367,0,0.734-0.059,1.102-0.176c0.367-0.118,0.728-0.299,1.082-0.542c0.355-0.243,0.695-0.556,1.021-0.933
			c0.326-0.377,0.628-0.83,0.905-1.358l0.82,0.464c-0.702,1.312-1.486,2.277-2.355,2.893c-0.868,0.616-1.87,0.924-3.003,0.924
			c-0.799,0-1.488-0.129-2.067-0.391c-0.58-0.261-1.06-0.629-1.444-1.102c-0.383-0.473-0.667-1.043-0.85-1.706
			c-0.184-0.665-0.275-1.405-0.275-2.22c0-0.646,0.055-1.282,0.165-1.916c0.11-0.631,0.277-1.231,0.501-1.799
			c0.224-0.565,0.504-1.093,0.838-1.576c0.334-0.485,0.728-0.902,1.18-1.254c0.453-0.353,0.962-0.627,1.53-0.826
			c0.566-0.199,1.193-0.299,1.877-0.299c0.44,0,0.871,0.051,1.29,0.152c0.421,0.102,0.794,0.264,1.12,0.488
			c0.326,0.227,0.589,0.52,0.789,0.888C201.359,220.292,201.459,220.745,201.459,221.282z M197.606,219.253
			c-0.58,0-1.079,0.151-1.499,0.459c-0.42,0.306-0.771,0.709-1.052,1.211c-0.282,0.5-0.5,1.073-0.655,1.718
			c-0.155,0.646-0.257,1.301-0.305,1.971c0.66-0.09,1.306-0.229,1.938-0.416c0.632-0.188,1.197-0.426,1.694-0.715
			c0.497-0.291,0.899-0.629,1.205-1.016c0.306-0.389,0.458-0.822,0.458-1.303c0-0.271-0.037-0.521-0.11-0.754
			c-0.073-0.232-0.183-0.434-0.33-0.604c-0.146-0.173-0.332-0.307-0.556-0.404C198.17,219.302,197.908,219.253,197.606,219.253z"/>
		<path fill="#FFFFFF" d="M203.453,218.677c1.028,0,1.845-0.306,2.453-0.915c0.608-0.611,1.075-1.486,1.401-2.619h0.954
			l-0.453,3.534h3.988l-0.073,0.931l-4.013,0.061c-0.073,0.705-0.152,1.43-0.238,2.178c-0.085,0.75-0.163,1.487-0.232,2.219
			c-0.07,0.731-0.129,1.438-0.178,2.115c-0.048,0.68-0.073,1.295-0.073,1.854c0,0.242,0.01,0.494,0.031,0.754
			c0.02,0.257,0.069,0.49,0.146,0.705c0.078,0.212,0.193,0.386,0.349,0.52c0.155,0.137,0.371,0.203,0.648,0.203
			c0.122,0,0.269-0.016,0.44-0.049s0.361-0.109,0.569-0.229s0.426-0.297,0.654-0.53c0.229-0.234,0.461-0.552,0.698-0.954
			l0.648,0.428c-0.245,0.434-0.496,0.811-0.753,1.135c-0.256,0.319-0.529,0.592-0.819,0.812c-0.29,0.221-0.602,0.386-0.937,0.495
			c-0.334,0.111-0.701,0.164-1.101,0.164c-0.49,0-0.901-0.077-1.235-0.237c-0.335-0.159-0.602-0.375-0.802-0.649
			c-0.199-0.271-0.344-0.589-0.434-0.947c-0.09-0.358-0.134-0.735-0.134-1.127c0-0.473,0.014-1.029,0.043-1.672
			c0.028-0.642,0.069-1.342,0.122-2.1c0.053-0.761,0.12-1.566,0.202-2.421c0.082-0.853,0.176-1.729,0.282-2.638l-2.227,0.023
			L203.453,218.677z"/>
		<path fill="#FFFFFF" d="M212.579,218.677c1.028,0,1.845-0.306,2.453-0.915c0.608-0.611,1.074-1.486,1.401-2.619h0.954
			l-0.453,3.534h3.988l-0.073,0.931l-4.013,0.061c-0.073,0.705-0.153,1.43-0.238,2.178c-0.085,0.75-0.163,1.487-0.232,2.219
			c-0.069,0.732-0.128,1.438-0.178,2.115c-0.048,0.68-0.073,1.295-0.073,1.854c0,0.242,0.01,0.494,0.03,0.754
			c0.021,0.257,0.069,0.49,0.147,0.705c0.077,0.212,0.193,0.386,0.349,0.52c0.155,0.137,0.371,0.203,0.648,0.203
			c0.122,0,0.269-0.016,0.44-0.049s0.361-0.109,0.569-0.229s0.426-0.297,0.654-0.53c0.229-0.234,0.461-0.552,0.698-0.954
			l0.648,0.428c-0.245,0.434-0.496,0.811-0.753,1.135c-0.256,0.319-0.53,0.592-0.819,0.812c-0.29,0.221-0.602,0.386-0.937,0.495
			c-0.334,0.111-0.701,0.164-1.101,0.164c-0.49,0-0.901-0.077-1.236-0.237c-0.334-0.159-0.602-0.375-0.801-0.649
			c-0.2-0.271-0.344-0.589-0.434-0.947c-0.09-0.358-0.135-0.735-0.135-1.127c0-0.473,0.015-1.029,0.043-1.672
			c0.029-0.642,0.069-1.342,0.123-2.1c0.053-0.761,0.12-1.566,0.202-2.421c0.082-0.853,0.176-1.729,0.282-2.638l-2.227,0.023
			L212.579,218.677z"/>
		<path fill="#FFFFFF" d="M231.649,221.282c0,0.466-0.109,0.883-0.33,1.256c-0.22,0.37-0.517,0.702-0.892,0.995
			c-0.375,0.294-0.81,0.551-1.303,0.771c-0.494,0.221-1.014,0.411-1.56,0.574s-1.103,0.295-1.669,0.396
			c-0.567,0.104-1.111,0.182-1.633,0.238c0.008,1.57,0.24,2.746,0.697,3.526s1.179,1.171,2.165,1.171
			c0.367,0,0.734-0.059,1.102-0.176c0.366-0.118,0.727-0.299,1.082-0.542s0.696-0.556,1.021-0.933
			c0.325-0.377,0.628-0.83,0.906-1.358l0.818,0.464c-0.7,1.312-1.485,2.277-2.354,2.893c-0.869,0.616-1.871,0.924-3.003,0.924
			c-0.799,0-1.488-0.129-2.067-0.391c-0.58-0.261-1.06-0.629-1.444-1.102c-0.383-0.473-0.667-1.043-0.85-1.706
			c-0.184-0.665-0.276-1.405-0.276-2.22c0-0.646,0.055-1.282,0.165-1.916c0.111-0.631,0.277-1.231,0.502-1.799
			c0.224-0.565,0.503-1.093,0.837-1.576c0.335-0.485,0.729-0.902,1.181-1.254c0.453-0.353,0.962-0.627,1.53-0.826
			c0.566-0.199,1.192-0.299,1.878-0.299c0.439,0,0.87,0.051,1.289,0.152c0.421,0.102,0.794,0.264,1.12,0.488
			c0.327,0.227,0.589,0.52,0.79,0.888C231.55,220.292,231.649,220.745,231.649,221.282z M227.797,219.253
			c-0.58,0-1.079,0.151-1.499,0.459c-0.42,0.306-0.771,0.709-1.052,1.211c-0.282,0.5-0.5,1.073-0.655,1.718
			c-0.155,0.646-0.257,1.301-0.306,1.971c0.661-0.09,1.307-0.229,1.939-0.416c0.632-0.188,1.197-0.426,1.694-0.715
			c0.498-0.291,0.9-0.629,1.206-1.016c0.306-0.389,0.458-0.822,0.458-1.303c0-0.271-0.037-0.521-0.11-0.754
			c-0.074-0.232-0.183-0.434-0.33-0.604c-0.147-0.172-0.333-0.307-0.557-0.404C228.361,219.302,228.098,219.253,227.797,219.253z"/>
		<path fill="#FFFFFF" d="M242.17,220.012c-0.049-0.017-0.096-0.025-0.141-0.025c-0.045,0-0.088,0-0.129,0
			c-0.375,0-0.739,0.16-1.094,0.484c-0.355,0.321-0.694,0.75-1.017,1.284c-0.322,0.533-0.617,1.147-0.887,1.847
			c-0.269,0.696-0.499,1.422-0.691,2.172c-0.191,0.75-0.342,1.502-0.452,2.256c-0.109,0.755-0.165,1.455-0.165,2.1
			c0,0.121,0,0.229,0,0.316c0,0.09,0.002,0.175,0.007,0.253c0.003,0.075,0.01,0.153,0.018,0.231c0.009,0.077,0.017,0.17,0.024,0.273
			h-2.079c-0.017-0.18-0.024-0.301-0.024-0.365c0-0.222,0.001-0.462,0.006-0.729c0.005-0.266,0.019-0.598,0.042-0.996
			c0.025-0.396,0.064-0.893,0.117-1.483c0.053-0.591,0.128-1.327,0.227-2.206c0.072-0.65,0.134-1.201,0.183-1.65
			c0.049-0.447,0.092-0.822,0.128-1.123c0.037-0.301,0.068-0.545,0.093-0.728c0.024-0.184,0.042-0.337,0.055-0.465
			c0.012-0.127,0.02-0.237,0.024-0.336c0.003-0.097,0.005-0.212,0.005-0.342c0-0.147-0.008-0.285-0.024-0.415
			c-0.016-0.131-0.048-0.25-0.097-0.354c-0.049-0.107-0.118-0.189-0.208-0.25c-0.089-0.062-0.208-0.095-0.354-0.095
			c-0.138,0-0.288,0.045-0.446,0.13c-0.159,0.085-0.322,0.223-0.489,0.412c-0.167,0.191-0.328,0.441-0.483,0.75
			c-0.155,0.309-0.294,0.68-0.416,1.119l-0.697-0.146c0.057-0.295,0.165-0.643,0.324-1.047c0.159-0.402,0.374-0.789,0.642-1.16
			c0.269-0.371,0.593-0.687,0.973-0.941c0.379-0.258,0.817-0.387,1.315-0.387c0.342,0,0.632,0.059,0.868,0.172
			c0.237,0.113,0.427,0.277,0.569,0.488c0.142,0.213,0.244,0.469,0.306,0.771c0.062,0.301,0.093,0.636,0.093,1.001
			c0,0.433-0.034,0.903-0.099,1.414c-0.065,0.509-0.155,1.051-0.269,1.622H238c0.367-1.086,0.743-1.98,1.125-2.686
			c0.384-0.705,0.773-1.266,1.169-1.679c0.396-0.41,0.798-0.698,1.205-0.86c0.407-0.162,0.815-0.244,1.223-0.244
			c0.254,0,0.485,0.035,0.698,0.104c0.212,0.068,0.397,0.167,0.557,0.292c0.158,0.127,0.283,0.281,0.372,0.46
			c0.091,0.178,0.136,0.379,0.136,0.6c0,0.146-0.027,0.293-0.079,0.439c-0.054,0.146-0.13,0.275-0.227,0.387
			c-0.099,0.108-0.219,0.2-0.361,0.27c-0.143,0.068-0.304,0.104-0.483,0.104c-0.31,0-0.57-0.088-0.782-0.264
			C242.338,220.613,242.21,220.354,242.17,220.012z"/>
	</g>
	<g>
		<path fill="#FFFFFF" d="M4.169,51.347h13.412v24.674l22.697-24.674h16.593l-23.9,26.566c2.063,2.867,5.875,8.21,11.435,16.034
			c5.559,7.824,9.714,13.656,12.466,17.496H41.224l-17.625-23.73l-6.018,6.706v17.023H4.169V51.347z"/>
		<path fill="#FFFFFF" d="M98.223,51.347v11.95H68.305v12.38h26.909v11.434H68.305v12.466h30.864v11.864H54.893V51.347H98.223z"/>
		<path fill="#FFFFFF" d="M144.132,51.347v11.95h-29.918v12.38h26.909v11.434h-26.909v12.466h30.864v11.864h-44.275V51.347H144.132z
			"/>
		<path fill="#FFFFFF" d="M188.106,56.72c4.213,3.583,6.32,9.085,6.32,16.507c0,7.423-2.164,12.853-6.491,16.292
			c-4.328,3.439-10.933,5.159-19.817,5.159h-7.995v16.765H146.71V51.347h21.235C177.173,51.347,183.894,53.139,188.106,56.72z
			 M178.263,80.363c1.604-1.806,2.407-4.441,2.407-7.91c0-3.467-1.047-5.932-3.138-7.394c-2.093-1.461-5.345-2.192-9.758-2.192
			h-7.652V83.07h9.027C173.62,83.071,176.657,82.168,178.263,80.363z"/>
		<path fill="#FFFFFF" d="M20.074,162.494c2.235,2.781,5.244,4.17,9.027,4.17c3.783,0,6.777-1.389,8.984-4.17
			c2.205-2.779,3.31-6.576,3.31-11.391v-33.187h13.412v33.615c0,8.714-2.407,15.405-7.222,20.075
			c-4.814,4.672-10.977,7.006-18.484,7.006c-7.51,0-13.685-2.35-18.527-7.049c-4.844-4.698-7.265-11.377-7.265-20.032v-33.615
			h13.412v33.187C16.721,155.918,17.839,159.715,20.074,162.494z"/>
		<path fill="#FFFFFF" d="M99.813,123.291c4.213,3.583,6.319,9.085,6.319,16.507c0,7.423-2.164,12.854-6.491,16.292
			c-4.328,3.439-10.933,5.158-19.817,5.158H71.83v16.766H58.418v-60.095h21.235C88.88,117.917,95.602,119.709,99.813,123.291z
			 M89.97,146.934c1.604-1.806,2.407-4.441,2.407-7.91c0-3.467-1.047-5.932-3.139-7.393c-2.092-1.462-5.345-2.193-9.757-2.193H71.83
			v20.203h9.027C85.327,149.641,88.365,148.739,89.97,146.934z"/>
		<path fill="#FFFFFF" d="M137.425,152.479l10.66-34.561H162.1l10.575,34.561l11.95-34.561h14.529l-20.978,60.096h-9.973
			L155.05,136.23l-13.068,41.783h-9.973l-20.977-60.096h14.53L137.425,152.479z"/>
		<path fill="#FFFFFF" d="M195.973,117.917h13.412v60.095h-13.412V117.917z"/>
		<path fill="#FFFFFF" d="M239.302,129.523v48.489H225.89v-48.489h-17.023v-11.606h47.457v11.606H239.302z"/>
		<path fill="#FFFFFF" d="M293.12,117.917h13.412v60.095H293.12V154.37h-23.899v23.644h-13.412v-60.096h13.412v25.105h23.899
			V117.917z"/>
		<path fill="#FFFFFF" d="M20.074,229.064c2.235,2.781,5.244,4.17,9.027,4.17c3.783,0,6.777-1.389,8.984-4.17
			c2.205-2.778,3.31-6.576,3.31-11.391v-33.188h13.412v33.615c0,8.715-2.407,15.405-7.222,20.075
			c-4.814,4.673-10.977,7.007-18.484,7.007c-7.51,0-13.685-2.35-18.527-7.05c-4.844-4.698-7.265-11.377-7.265-20.032v-33.615h13.412
			v33.188C16.721,222.488,17.839,226.286,20.074,229.064z"/>
		<path fill="#FFFFFF" d="M72.474,196.48c-1.29,1.062-1.934,2.465-1.934,4.213c0,1.75,0.787,3.139,2.364,4.17
			c1.576,1.031,5.215,2.25,10.918,3.654c5.702,1.405,10.13,3.512,13.283,6.318c3.151,2.809,4.729,6.907,4.729,12.295
			c0,5.389-2.021,9.758-6.062,13.11s-9.358,5.028-15.948,5.028c-9.515,0-18.083-3.523-25.706-10.574l7.996-9.801
			c6.476,5.674,12.466,8.512,17.969,8.512c2.463,0,4.398-0.529,5.803-1.592c1.404-1.06,2.106-2.492,2.106-4.297
			c0-1.807-0.746-3.238-2.235-4.3c-1.491-1.06-4.442-2.135-8.855-3.225c-6.993-1.661-12.109-3.825-15.346-6.49
			c-3.239-2.666-4.857-6.849-4.857-12.552c0-5.704,2.049-10.104,6.147-13.198c4.097-3.095,9.212-4.644,15.346-4.644
			c4.012,0,8.023,0.688,12.036,2.064c4.012,1.375,7.508,3.324,10.489,5.846l-6.792,9.801c-5.216-3.953-10.604-5.932-16.163-5.932
			C75.526,194.893,73.764,195.422,72.474,196.48z"/>
	</g>
	<g>
		<path fill="#5AFFC0" d="M7.81,37.928l1.7-5.509h2.233l1.686,5.509l1.905-5.509h2.316l-3.344,9.579h-1.59l-2.097-6.66l-2.083,6.66
			h-1.59l-3.344-9.579h2.316L7.81,37.928z"/>
		<path fill="#5AFFC0" d="M25.693,32.419v1.905h-4.77v1.974h4.29v1.823h-4.29v1.987h4.92v1.891h-7.057V32.42L25.693,32.419
			L25.693,32.419z"/>
		<path fill="#5AFFC0" d="M27.556,34.419c-0.301-0.201-0.452-0.481-0.452-0.842c0-0.361,0.108-0.646,0.322-0.856
			c0.215-0.21,0.484-0.315,0.809-0.315c0.324,0,0.594,0.1,0.809,0.301c0.215,0.202,0.322,0.462,0.322,0.781
			c0,0.32-0.101,0.635-0.302,0.946l-1,1.453H26.94L27.556,34.419z"/>
		<path fill="#5AFFC0" d="M38.807,35.599c0,1.535-0.608,2.526-1.822,2.974l2.425,3.426h-2.631l-2.124-3.056h-1.48v3.056h-2.137
			V32.42h3.631c1.49,0,2.551,0.251,3.187,0.754C38.49,33.675,38.807,34.484,38.807,35.599z M36.231,36.736
			c0.265-0.237,0.397-0.614,0.397-1.131c0-0.516-0.137-0.87-0.411-1.062c-0.274-0.192-0.753-0.288-1.439-0.288h-1.604v2.836h1.562
			C35.468,37.092,35.966,36.974,36.231,36.736z"/>
		<path fill="#5AFFC0" d="M47.907,32.419v1.905h-4.769v1.974h4.29v1.823h-4.29v1.987h4.92v1.891H41V32.42L47.907,32.419
			L47.907,32.419z"/>
		<path fill="#5AFFC0" d="M60.404,41.998l-0.891-2.069h-4.015l-0.891,2.069h-2.275l4.139-9.579h2.069l4.139,9.579H60.404z
			 M57.513,35.27l-1.207,2.782h2.398L57.513,35.27z"/>
		<path fill="#5AFFC0" d="M63.79,41.998v-9.579h2.137v7.674h4.084v1.905H63.79z"/>
		<path fill="#5AFFC0" d="M73.875,37.928l1.7-5.509h2.233l1.686,5.509l1.905-5.509h2.316l-3.344,9.579h-1.59l-2.096-6.66
			l-2.083,6.66h-1.59l-3.344-9.579h2.316L73.875,37.928z"/>
		<path fill="#5AFFC0" d="M91.17,41.998l-0.891-2.069h-4.015l-0.891,2.069h-2.275l4.139-9.579h2.069l4.138,9.579H91.17z
			 M88.279,35.27l-1.206,2.782h2.398L88.279,35.27z"/>
		<path fill="#5AFFC0" d="M98.008,41.998H95.87v-3.782l-3.316-5.797h2.315l2.069,3.563l2.069-3.563h2.316l-3.316,5.797
			L98.008,41.998L98.008,41.998z"/>
		<path fill="#5AFFC0" d="M104.442,34.331c-0.206,0.169-0.309,0.393-0.309,0.671s0.125,0.5,0.377,0.665
			c0.251,0.165,0.831,0.358,1.74,0.582s1.615,0.56,2.118,1.008c0.502,0.448,0.753,1.101,0.753,1.959c0,0.858-0.321,1.555-0.965,2.09
			c-0.644,0.534-1.492,0.802-2.542,0.802c-1.517,0-2.882-0.562-4.097-1.686l1.274-1.562c1.033,0.904,1.987,1.357,2.865,1.357
			c0.393,0,0.701-0.084,0.925-0.254c0.224-0.169,0.336-0.397,0.336-0.685c0-0.288-0.119-0.517-0.356-0.686
			c-0.238-0.169-0.708-0.34-1.412-0.514c-1.114-0.265-1.93-0.609-2.445-1.034c-0.517-0.425-0.775-1.092-0.775-2.001
			s0.327-1.61,0.98-2.104c0.653-0.494,1.469-0.74,2.446-0.74c0.64,0,1.279,0.11,1.919,0.329c0.639,0.219,1.196,0.53,1.671,0.932
			l-1.083,1.562c-0.831-0.631-1.69-0.946-2.576-0.946C104.929,34.077,104.647,34.162,104.442,34.331z"/>
		<path fill="#5AFFC0" d="M123.141,35.969l-2.59,5.235h-1.274l-2.577-5.235v6.029h-2.137v-9.579h2.891l2.467,5.263l2.48-5.263h2.878
			v9.579h-2.138V35.969z"/>
		<path fill="#5AFFC0" d="M135.694,40.675c-0.969,0.946-2.161,1.419-3.577,1.419s-2.608-0.473-3.577-1.419
			c-0.968-0.945-1.453-2.122-1.453-3.528c0-1.406,0.485-2.583,1.453-3.529c0.968-0.945,2.161-1.418,3.577-1.418
			s2.608,0.473,3.577,1.418c0.969,0.946,1.453,2.122,1.453,3.529C137.147,38.554,136.663,39.73,135.694,40.675z M134.968,37.154
			c0-0.854-0.274-1.583-0.822-2.186c-0.548-0.603-1.222-0.905-2.021-0.905c-0.8,0-1.473,0.302-2.021,0.905
			c-0.548,0.603-0.822,1.332-0.822,2.186s0.274,1.581,0.822,2.179s1.222,0.897,2.021,0.897s1.473-0.299,2.021-0.897
			C134.693,38.734,134.968,38.008,134.968,37.154z"/>
		<path fill="#5AFFC0" d="M142.271,38.518l2.439-6.099h2.316l-3.851,9.579h-1.809l-3.851-9.579h2.316L142.271,38.518z"/>
		<path fill="#5AFFC0" d="M148.164,32.419h2.138v9.579h-2.138V32.419z"/>
		<path fill="#5AFFC0" d="M159.36,32.419h2.138v9.579h-2.138l-4.563-6.002v6.002h-2.137v-9.579h2.001l4.7,6.167L159.36,32.419
			L159.36,32.419z"/>
		<path fill="#5AFFC0" d="M170.076,37.12h2.151v3.398c-0.95,1.06-2.266,1.59-3.946,1.59c-1.407,0-2.588-0.466-3.542-1.398
			c-0.955-0.932-1.433-2.108-1.433-3.528c0-1.421,0.487-2.606,1.46-3.557s2.147-1.425,3.522-1.425s2.569,0.452,3.583,1.357
			l-1.109,1.604c-0.43-0.375-0.825-0.633-1.186-0.774c-0.361-0.141-0.752-0.212-1.172-0.212c-0.813,0-1.498,0.276-2.056,0.829
			c-0.557,0.553-0.836,1.281-0.836,2.186c0,0.905,0.267,1.629,0.802,2.172c0.534,0.543,1.172,0.815,1.912,0.815
			c0.74,0,1.357-0.141,1.85-0.424V37.12L170.076,37.12z"/>
		<path fill="#5AFFC0" d="M184.328,32.419v1.877h-4.44v2.069h4.221v1.877h-4.221v3.755h-2.138v-9.579L184.328,32.419L184.328,32.419
			z"/>
		<path fill="#5AFFC0" d="M194.195,40.675c-0.969,0.946-2.161,1.419-3.577,1.419c-1.417,0-2.608-0.473-3.577-1.419
			c-0.968-0.945-1.453-2.122-1.453-3.528c0-1.406,0.485-2.583,1.453-3.529c0.968-0.945,2.16-1.418,3.577-1.418
			c1.416,0,2.608,0.473,3.577,1.418c0.968,0.946,1.453,2.122,1.453,3.529C195.648,38.554,195.163,39.73,194.195,40.675z
			 M193.469,37.154c0-0.854-0.274-1.583-0.822-2.186c-0.548-0.603-1.222-0.905-2.021-0.905c-0.8,0-1.473,0.302-2.021,0.905
			c-0.548,0.603-0.822,1.332-0.822,2.186s0.274,1.581,0.822,2.179s1.222,0.897,2.021,0.897s1.473-0.299,2.021-0.897
			C193.194,38.734,193.469,38.008,193.469,37.154z"/>
		<path fill="#5AFFC0" d="M205.227,35.599c0,1.535-0.608,2.526-1.822,2.974l2.425,3.426h-2.631l-2.124-3.056h-1.48v3.056h-2.137
			V32.42h3.631c1.489,0,2.551,0.251,3.187,0.754C204.909,33.675,205.227,34.484,205.227,35.599z M202.65,36.736
			c0.265-0.237,0.397-0.614,0.397-1.131c0-0.516-0.137-0.87-0.411-1.062c-0.274-0.192-0.753-0.288-1.439-0.288h-1.604v2.836h1.562
			C201.888,37.092,202.385,36.974,202.65,36.736z"/>
		<path fill="#5AFFC0" d="M210.284,37.928l1.7-5.509h2.233l1.686,5.509l1.905-5.509h2.315l-3.343,9.579h-1.59l-2.097-6.66
			l-2.083,6.66h-1.59l-3.344-9.579h2.316L210.284,37.928z"/>
		<path fill="#5AFFC0" d="M227.579,41.998l-0.892-2.069h-4.015l-0.891,2.069h-2.274l4.139-9.579h2.069l4.139,9.579H227.579z
			 M224.686,35.27l-1.206,2.782h2.398L224.686,35.27z"/>
		<path fill="#5AFFC0" d="M238.733,35.599c0,1.535-0.609,2.526-1.823,2.974l2.424,3.426h-2.632l-2.123-3.056H233.1v3.056h-2.139
			V32.42h3.631c1.49,0,2.552,0.251,3.187,0.754C238.414,33.675,238.733,34.484,238.733,35.599z M236.157,36.736
			c0.263-0.237,0.397-0.614,0.397-1.131c0-0.516-0.138-0.87-0.41-1.062c-0.274-0.192-0.754-0.288-1.441-0.288h-1.602v2.836h1.562
			C235.394,37.092,235.892,36.974,236.157,36.736z"/>
		<path fill="#5AFFC0" d="M248.244,33.673c0.914,0.836,1.369,1.999,1.369,3.488c0,1.489-0.444,2.668-1.336,3.536
			c-0.89,0.868-2.249,1.302-4.075,1.302h-3.276V32.42h3.386C246.02,32.419,247.329,32.837,248.244,33.673z M246.676,39.367
			c0.524-0.493,0.787-1.21,0.787-2.151c0-0.94-0.263-1.665-0.787-2.172c-0.526-0.507-1.332-0.76-2.42-0.76h-1.191v5.824h1.356
			C245.397,40.107,246.149,39.86,246.676,39.367z"/>
	</g>
</g>
<polygon fill="none" stroke="#5AFFC0" stroke-width="5" stroke-miterlimit="10" points="271.849,208.483 286.17,228.838 
	300.491,208.483 "/>
</svg>
