<?xml version="1.0" encoding="utf-8"?>
<!-- Generator: Adobe Illustrator 16.0.0, SVG Export Plug-In . SVG Version: 6.00 Build 0)  -->
<!DOCTYPE svg PUBLIC "-//W3C//DTD SVG 1.1//EN" "http://www.w3.org/Graphics/SVG/1.1/DTD/svg11.dtd">
<svg version="1.1" id="Layer_1" xmlns="http://www.w3.org/2000/svg" xmlns:xlink="http://www.w3.org/1999/xlink" x="0px" y="0px"
	 width="185px" height="45px" viewBox="-0.75 0 185 45" enable-background="new -0.75 0 185 45" xml:space="preserve">
<g>
	<g>
		<polygon fill="#010101" points="1.175,23.481 1.175,30.12 23.538,42.526 42.251,31.98 42.251,25.339 23.538,35.887 		"/>
		<polygon fill="#010101" points="33.96,17.084 33.96,10.444 23.538,16.918 1.175,4.511 1.175,11.151 23.538,23.558 		"/>
		<polygon fill="#010101" points="23.538,26.404 1.175,13.994 1.175,20.636 23.538,33.041 45.9,20.636 45.9,13.994 		"/>
		<polygon fill="#010101" points="37.502,13.717 40.493,11.453 43.484,13.717 42.257,10.171 45.333,8.104 41.582,8.102 
			40.493,4.511 39.403,8.102 35.652,8.104 38.736,10.171 		"/>
	</g>
	<g>
		<g>
			<path fill="#010101" d="M59.681,25.588l3.358-8.392h3.186l-5.299,13.183h-2.489l-5.301-13.183h3.187L59.681,25.588z"/>
			<path fill="#010101" d="M66.328,18.941c-0.318-0.322-0.48-0.712-0.48-1.178c0-0.465,0.163-0.859,0.48-1.18
				c0.321-0.32,0.715-0.48,1.182-0.48c0.462,0,0.857,0.16,1.179,0.48c0.318,0.321,0.479,0.715,0.479,1.18
				c0,0.466-0.162,0.856-0.479,1.178c-0.321,0.321-0.716,0.48-1.179,0.48C67.042,19.421,66.648,19.262,66.328,18.941z
				 M68.922,30.379h-2.831V20.233h2.831V30.379z"/>
			<path fill="#010101" d="M77.824,27.221c0,0.998-0.367,1.801-1.104,2.404c-0.736,0.604-1.669,0.903-2.802,0.903
				c-0.753,0-1.539-0.132-2.356-0.403s-1.554-0.671-2.206-1.199l1.245-1.771c1.056,0.815,2.182,1.228,3.375,1.228
				c0.366,0,0.654-0.073,0.868-0.217c0.213-0.146,0.321-0.338,0.321-0.578c0-0.238-0.148-0.457-0.444-0.658
				c-0.297-0.201-0.724-0.389-1.283-0.566c-0.558-0.173-0.986-0.325-1.282-0.454c-0.296-0.126-0.633-0.309-1.01-0.545
				c-0.767-0.479-1.149-1.187-1.149-2.123c0-0.936,0.377-1.7,1.13-2.29c0.754-0.591,1.729-0.889,2.924-0.889
				c1.192,0,2.39,0.404,3.584,1.207l-1.054,1.886c-0.883-0.603-1.758-0.905-2.633-0.905c-0.873,0-1.31,0.24-1.31,0.716
				c0,0.266,0.14,0.474,0.415,0.623c0.277,0.149,0.735,0.326,1.377,0.527c0.641,0.203,1.095,0.357,1.366,0.463
				c0.27,0.106,0.595,0.272,0.973,0.498C77.471,25.506,77.824,26.223,77.824,27.221z"/>
			<path fill="#010101" d="M85.123,25.701v-5.468h2.847v10.146h-2.847v-1.338c-0.703,0.994-1.612,1.488-2.726,1.488
				c-1.114,0-2.047-0.35-2.802-1.045c-0.753-0.7-1.13-1.73-1.13-3.104v-6.147h2.848v5.526c0,1.558,0.572,2.338,1.717,2.338
				c0.564,0,1.056-0.204,1.471-0.611C84.917,27.077,85.123,26.482,85.123,25.701z"/>
			<path fill="#010101" d="M97.852,30.379h-2.656v-1.227c-0.73,0.92-1.633,1.377-2.707,1.377c-1.076,0-1.979-0.311-2.706-0.934
				c-0.729-0.619-1.095-1.451-1.095-2.488s0.377-1.814,1.131-2.331c0.756-0.513,1.785-0.771,3.095-0.771h2.108v-0.06
				c0-1.079-0.568-1.621-1.713-1.621c-0.492,0-1.013,0.095-1.557,0.291c-0.55,0.196-1.011,0.438-1.386,0.728l-1.265-1.83
				c1.332-0.968,2.854-1.454,4.563-1.454c1.231,0,2.237,0.309,3.018,0.926c0.777,0.615,1.168,1.592,1.168,2.925V30.379
				L97.852,30.379z M95.005,26.514v-0.49h-1.772c-1.131,0-1.695,0.354-1.695,1.056c0,0.365,0.136,0.646,0.402,0.841
				c0.272,0.195,0.66,0.293,1.162,0.293c0.504,0,0.945-0.156,1.33-0.465C94.813,27.44,95.005,27.03,95.005,26.514z"/>
			<path fill="#010101" d="M101.852,30.379h-2.828V16.385h2.828V30.379z"/>
			<path fill="#010101" d="M110.047,19.826c-0.283,0.232-0.426,0.541-0.426,0.928c0,0.383,0.174,0.685,0.52,0.912
				c0.346,0.226,1.145,0.495,2.396,0.803c1.25,0.307,2.225,0.769,2.912,1.385c0.691,0.614,1.039,1.516,1.039,2.696
				c0,1.184-0.443,2.141-1.33,2.875c-0.887,0.735-2.053,1.104-3.5,1.104c-2.084,0-3.965-0.771-5.639-2.316l1.752-2.151
				c1.424,1.245,2.736,1.866,3.945,1.866c0.537,0,0.963-0.115,1.271-0.348c0.307-0.232,0.461-0.548,0.461-0.943
				s-0.162-0.709-0.488-0.943c-0.328-0.23-0.977-0.467-1.943-0.708c-1.535-0.363-2.656-0.839-3.367-1.423
				c-0.709-0.583-1.064-1.503-1.064-2.754c0-1.251,0.449-2.214,1.35-2.894c0.896-0.679,2.02-1.021,3.365-1.021
				c0.881,0,1.76,0.152,2.639,0.455c0.883,0.302,1.65,0.729,2.307,1.283l-1.492,2.148c-1.145-0.865-2.326-1.3-3.545-1.3
				C110.719,19.479,110.33,19.594,110.047,19.826z"/>
			<path fill="#010101" d="M127.352,25.307c0,1.47-0.506,2.709-1.525,3.715s-2.301,1.508-3.84,1.508c-1.541,0-2.82-0.502-3.84-1.508
				c-1.018-1.006-1.525-2.245-1.525-3.715c0-1.473,0.51-2.712,1.525-3.728c1.02-1.013,2.299-1.519,3.84-1.519
				c1.539,0,2.82,0.506,3.84,1.519C126.846,22.594,127.352,23.836,127.352,25.307z M119.467,25.307c0,0.83,0.238,1.506,0.709,2.025
				c0.473,0.523,1.074,0.785,1.811,0.785c0.738,0,1.34-0.262,1.811-0.785c0.475-0.521,0.707-1.195,0.707-2.025
				c0-0.828-0.232-1.51-0.707-2.038c-0.471-0.529-1.072-0.791-1.811-0.791c-0.734,0-1.338,0.262-1.811,0.791
				C119.705,23.797,119.467,24.479,119.467,25.307z"/>
			<path fill="#010101" d="M130.861,30.379h-2.83V16.385h2.83V30.379z"/>
			<path fill="#010101" d="M136.188,30.529c-1.201,0-2.271-0.508-3.215-1.527c-0.943-1.017-1.414-2.281-1.414-3.789
				c0-1.51,0.457-2.744,1.375-3.706c0.918-0.963,1.992-1.446,3.227-1.446c1.232,0,2.234,0.436,3.016,1.301v-4.978h2.83v13.995h-2.83
				v-1.338C138.385,30.035,137.389,30.529,136.188,30.529z M134.406,25.325c0,0.818,0.242,1.487,0.732,2.009
				c0.492,0.522,1.064,0.784,1.717,0.784c0.656,0,1.211-0.262,1.67-0.784c0.461-0.521,0.688-1.195,0.688-2.021
				c0-0.82-0.227-1.507-0.688-2.052c-0.459-0.547-1.02-0.821-1.688-0.821c-0.666,0-1.236,0.276-1.717,0.828
				C134.643,23.823,134.406,24.508,134.406,25.325z"/>
			<path fill="#010101" d="M143.506,18.941c-0.32-0.322-0.482-0.712-0.482-1.178c0-0.465,0.162-0.859,0.482-1.18
				c0.32-0.32,0.713-0.48,1.18-0.48c0.465,0,0.859,0.16,1.18,0.48c0.316,0.321,0.479,0.715,0.479,1.18
				c0,0.466-0.162,0.856-0.479,1.178c-0.32,0.321-0.715,0.48-1.18,0.48C144.219,19.421,143.826,19.262,143.506,18.941z
				 M146.098,30.379h-2.826V20.233h2.826V30.379z"/>
			<path fill="#010101" d="M156.152,28.911c-1.146,1.08-2.488,1.618-4.029,1.618c-1.539,0-2.812-0.475-3.816-1.423
				c-1.008-0.949-1.508-2.224-1.508-3.817c0-1.598,0.512-2.868,1.535-3.81c1.023-0.945,2.232-1.417,3.633-1.417
				c1.395,0,2.58,0.423,3.555,1.265c0.975,0.843,1.461,2,1.461,3.472v1.508h-7.395c0.086,0.554,0.377,1.006,0.869,1.359
				c0.49,0.352,1.043,0.525,1.658,0.525c0.992,0,1.811-0.33,2.451-0.998L156.152,28.911z M153.438,22.894
				c-0.391-0.327-0.867-0.493-1.426-0.493c-0.561,0-1.072,0.17-1.537,0.511c-0.469,0.341-0.736,0.798-0.812,1.374h4.453
				C154.053,23.684,153.826,23.219,153.438,22.894z"/>
			<path fill="#010101" d="M162.941,22.722c-0.844,0-1.473,0.299-1.887,0.897c-0.412,0.598-0.623,1.385-0.623,2.366v4.394h-2.828
				V20.233h2.828v1.339c0.365-0.415,0.822-0.768,1.367-1.058c0.547-0.29,1.105-0.44,1.668-0.454l0.021,2.661L162.941,22.722
				L162.941,22.722z"/>
			<path fill="#010101" d="M171.504,27.221c0,0.998-0.367,1.801-1.105,2.404c-0.734,0.604-1.67,0.903-2.799,0.903
				c-0.756,0-1.541-0.132-2.357-0.403c-0.814-0.271-1.555-0.671-2.205-1.199l1.244-1.771c1.055,0.815,2.182,1.228,3.375,1.228
				c0.363,0,0.654-0.073,0.867-0.217c0.213-0.146,0.32-0.338,0.32-0.578c0-0.238-0.146-0.457-0.443-0.658
				c-0.295-0.201-0.721-0.389-1.279-0.566c-0.561-0.173-0.986-0.325-1.283-0.454c-0.297-0.126-0.635-0.309-1.01-0.545
				c-0.77-0.479-1.15-1.187-1.15-2.123c0-0.936,0.379-1.7,1.129-2.29c0.756-0.591,1.73-0.889,2.926-0.889s2.393,0.404,3.584,1.207
				l-1.057,1.887c-0.881-0.603-1.756-0.905-2.633-0.905c-0.871,0-1.311,0.24-1.311,0.717c0,0.265,0.139,0.473,0.416,0.623
				c0.275,0.148,0.734,0.326,1.377,0.526c0.643,0.203,1.096,0.357,1.367,0.464c0.271,0.105,0.594,0.271,0.973,0.497
				C171.154,25.506,171.504,26.223,171.504,27.221z"/>
		</g>
		<g>
			<path fill="#010101" d="M174.486,18.856v2.95h-0.59v-2.95h-1.059V18.32h2.705v0.536H174.486z"/>
			<path fill="#010101" d="M176.77,21.806h-0.588V18.32h0.918l1.053,2.19l1.053-2.19h0.914v3.486h-0.588V19.08l-1.221,2.42h-0.328
				l-1.213-2.42V21.806L176.77,21.806z"/>
		</g>
	</g>
</g>
</svg>
